{"title":"Paranormal Activity 2 (2010) XviD - Ita Eng Ac3 5.1 - Sub Ita En","uid":8455707,"size":1684551477,"categoryP":"video","categoryS":"movies","magnet":"?xt=urn:btih:b7258042bbf2252878748c6a45120c3896aa4377&amp;dn=Paranormal+Activity+2+%282010%29+XviD+-+Ita+Eng+Ac3+5.1+-+Sub+Ita+En&amp;tr=udp%3A%2F%2Ftracker.openbittorrent.com%3A80&amp;tr=udp%3A%2F%2Fopen.demonii.com%3A1337&amp;tr=udp%3A%2F%2Ftracker.coppersurfer.tk%3A6969&amp;tr=udp%3A%2F%2Fexodus.desync.com%3A6969","seeders":0,"leechers":0,"uploader":null,"files":3,"time":1368059990,"description":"\nGeneral\nComplete name : Paranormal Activity 2 (2010)Paranormal Activity 2 (2010).avi\nFormat : AVI\nFormat/Info : Audio Video Interleave\nFile size : 1.56 GiB\nDuration : 1h 34mn\nOverall bit rate : 2 378 Kbps\nWriting application : VirtualDubMod 1.5.4.1 (build 2178/release)\nWriting library : VirtualDubMod build 2178/release\n\nVideo\nID : 0\nFormat : MPEG-4 Visual\nFormat profile : Advanced Simple@L5\nFormat settings, BVOP : Yes\nFormat settings, QPel : No\nFormat settings, GMC : No warppoints\nFormat settings, Matrix : Custom\nCodec ID : XVID\nCodec ID/Hint : XviD\nDuration : 1h 34mn\nBit rate : 1 473 Kbps\nWidth : 720 pixels\nHeight : 400 pixels\nDisplay aspect ratio : 16:9\nFrame rate : 25.000 fps\nColor space : YUV\nChroma subsampling : 4:2:0\nBit depth : 8 bits\nScan type : Progressive\nBits/(Pixel*Frame) : 0.205\nStream size : 991 MiB (62%)\nWriting library : XviD 1.2.1 (UTC 2008-12-04)\n\nAudio #1\nID : 1\nFormat : AC-3\nFormat/Info : Audio Coding 3\nMode extension : CM (complete main)\nCodec ID : 2000\nDuration : 1h 34mn\nBit rate mode : Constant\nBit rate : 448 Kbps\nChannel(s) : 6 channels\nChannel positions : Front: L C R, Side: L R, LFE\nSampling rate : 48.0 KHz\nBit depth : 16 bits\nVideo delay : 24ms\nStream size : 301 MiB (19%)\nAlignment : Split accross interleaves\nInterleave, duration : 96 ms (2.40 video frames)\nInterleave, preload duration : 96 ms\nLanguage : Italian\n\nAudio #2\nID : 2\nFormat : AC-3\nFormat/Info : Audio Coding 3\nMode extension : CM (complete main)\nCodec ID : 2000\nDuration : 1h 34mn\nBit rate mode : Constant\nBit rate : 448 Kbps\nChannel(s) : 6 channels\nChannel positions : Front: L C R, Side: L R, LFE\nSampling rate : 48.0 KHz\nBit depth : 16 bits\nVideo delay : 24ms\nStream size : 301 MiB (19%)\nAlignment : Split accross interleaves\nInterleave, duration : 96 ms (2.40 video frames)\nInterleave, preload duration : 96 ms\nLanguage : English","torrent":{"xt":"urn:btih:b7258042bbf2252878748c6a45120c3896aa4377","amp;dn":"Paranormal+Activity+2+%282010%29+XviD+-+Ita+Eng+Ac3+5.1+-+Sub+Ita+En","amp;tr":["udp%3A%2F%2Ftracker.openbittorrent.com%3A80","udp%3A%2F%2Fopen.demonii.com%3A1337","udp%3A%2F%2Ftracker.coppersurfer.tk%3A6969","udp%3A%2F%2Fexodus.desync.com%3A6969"],"infoHash":"b7258042bbf2252878748c6a45120c3896aa4377","infoHashBuffer":{"type":"Buffer","data":[183,37,128,66,187,242,37,40,120,116,140,106,69,18,12,56,150,170,67,119]},"announce":[],"urlList":[]}}